<?xml version="1.0" standalone="no"?>
<!DOCTYPE svg PUBLIC "-//W3C//DTD SVG 20010904//EN"
 "http://www.w3.org/TR/2001/REC-SVG-20010904/DTD/svg10.dtd">
<svg version="1.0" xmlns="http://www.w3.org/2000/svg"
 width="256.000000pt" height="256.000000pt" viewBox="0 0 256.000000 256.000000"
 preserveAspectRatio="xMidYMid meet">
<metadata>
Created by potrace 1.14, written by Peter Selinger 2001-2017
</metadata>
<g transform="translate(0.000000,256.000000) scale(0.100000,-0.100000)"
fill="#000000" stroke="none">
<path d="M1045 2230 c-106 -15 -98 -5 -155 -204 -34 -117 -40 -130 -66 -141
-45 -19 -74 -57 -143 -187 -17 -31 -44 -78 -61 -104 -16 -27 -30 -58 -30 -71
0 -35 56 -139 102 -189 l41 -44 -22 -134 c-11 -73 -21 -138 -21 -143 0 -6 18
-18 40 -28 22 -10 40 -21 40 -25 0 -4 -23 -17 -52 -31 -59 -27 -137 -99 -163
-149 -9 -18 -20 -59 -22 -90 -10 -112 76 -239 203 -297 47 -21 66 -25 132 -21
127 6 229 70 272 170 45 104 13 270 -68 357 -18 18 -32 34 -32 36 0 1 19 -1
43 -6 23 -4 47 -8 52 -9 6 0 38 54 70 121 l60 120 35 -6 c19 -4 82 -27 139
-52 148 -64 196 -71 330 -49 60 10 124 16 143 12 28 -5 43 0 82 25 26 17 58
48 72 68 l24 36 -62 6 c-35 3 -71 9 -81 13 -27 12 -73 85 -112 176 -32 76 -34
87 -32 178 2 86 -1 103 -23 147 -20 39 -37 57 -82 83 l-57 34 52 81 c29 45 56
87 60 94 4 7 -29 54 -82 116 l-90 104 -92 6 c-117 9 -378 7 -444 -3z m404
-106 c2 -2 -28 -70 -67 -151 -90 -188 -184 -409 -251 -588 -29 -77 -58 -156
-65 -175 l-14 -35 -123 -5 c-68 -3 -125 -5 -127 -4 -5 3 45 278 90 494 45 220
102 428 123 449 17 17 180 28 325 23 58 -3 107 -6 109 -8z m169 -329 c20 -24
27 -45 23 -69 -1 -5 7 -30 18 -55 10 -25 22 -73 26 -106 4 -33 14 -77 22 -98
12 -30 13 -40 3 -52 -23 -27 -165 -65 -245 -65 -66 0 -77 -3 -99 -25 -31 -31
-81 -34 -96 -6 -14 27 -13 66 3 79 15 13 84 5 104 -11 9 -6 33 3 81 31 38 22
80 44 95 47 15 4 27 9 27 12 0 3 -20 24 -43 47 -33 32 -46 53 -51 84 -3 23
-10 42 -15 42 -5 0 -16 16 -26 35 -51 109 93 201 173 110z m-815 -131 c-15
-71 -33 -134 -41 -140 -11 -8 -12 -16 -5 -30 12 -24 -4 -107 -19 -98 -19 12
-68 98 -68 118 0 12 16 46 35 76 19 30 35 58 35 62 0 5 18 37 40 70 22 34 40
66 40 72 0 5 2 7 5 4 3 -3 -7 -63 -22 -134z m151 -782 c67 -39 88 -130 48
-208 -79 -154 -307 -182 -373 -47 -25 52 -20 96 17 160 59 103 213 150 308 95z"/>
</g>
</svg>
